<?xml version="1.0" encoding="UTF-8" standalone="no"?>
<svg
   xmlns:dc="http://purl.org/dc/elements/1.1/"
   xmlns:cc="http://creativecommons.org/ns#"
   xmlns:rdf="http://www.w3.org/1999/02/22-rdf-syntax-ns#"
   xmlns:svg="http://www.w3.org/2000/svg"
   xmlns="http://www.w3.org/2000/svg"
   xmlns:xlink="http://www.w3.org/1999/xlink"
   xmlns:sodipodi="http://sodipodi.sourceforge.net/DTD/sodipodi-0.dtd"
   xmlns:inkscape="http://www.inkscape.org/namespaces/inkscape"
   data-v-fde0c5aa=""
   viewBox="0 0 52.34911 17.449703"
   class="iconLeft"
   version="1.1"
   id="svg19"
   sodipodi:docname="seat_plus_logo.svg"
   width="52.34911"
   height="52.34911"
   inkscape:version="0.92.3 (2405546, 2018-03-11)">
  <metadata
     id="metadata23">
    <rdf:RDF>
      <cc:Work
         rdf:about="">
        <dc:format>image/svg+xml</dc:format>
        <dc:type
           rdf:resource="http://purl.org/dc/dcmitype/StillImage" />
        <dc:title></dc:title>
      </cc:Work>
    </rdf:RDF>
  </metadata>
  <sodipodi:namedview
     pagecolor="#ffffff"
     bordercolor="#666666"
     borderopacity="1"
     objecttolerance="10"
     gridtolerance="10"
     guidetolerance="10"
     inkscape:pageopacity="0"
     inkscape:pageshadow="2"
     inkscape:window-width="1745"
     inkscape:window-height="1144"
     id="namedview21"
     showgrid="true"
     inkscape:zoom="7.1165758"
     inkscape:cx="11.969251"
     inkscape:cy="35.315369"
     inkscape:window-x="4462"
     inkscape:window-y="457"
     inkscape:window-maximized="0"
     inkscape:current-layer="g3742"
     showguides="true"
     fit-margin-top="0"
     fit-margin-left="0"
     fit-margin-right="0"
     fit-margin-bottom="0">
    <inkscape:grid
       type="xygrid"
       id="grid3734"
       originx="-39.901503"
       originy="-7.8099592" />
  </sodipodi:namedview>
  <!---->
  <defs
     data-v-fde0c5aa=""
     id="defs2">
    <!---->
    <linearGradient
       inkscape:collect="always"
       xlink:href="#3277e222-ce45-443f-b310-4bd0955daf47"
       id="linearGradient3749"
       gradientTransform="scale(0.94253147,1.0609725)"
       x1="5.8512635"
       y1="-0.32031241"
       x2="100.24917"
       y2="-0.32031241"
       gradientUnits="userSpaceOnUse" />
    <linearGradient
       inkscape:collect="always"
       xlink:href="#3277e222-ce45-443f-b310-4bd0955daf47"
       id="linearGradient3751"
       gradientTransform="scale(0.94253147,1.0609725)"
       x1="5.8512635"
       y1="-0.32031241"
       x2="100.24917"
       y2="-0.32031241"
       gradientUnits="userSpaceOnUse" />
  </defs>
  <!---->
  <defs
     data-v-fde0c5aa=""
     id="defs4">
    <!---->
  </defs>
  <defs
     data-v-fde0c5aa=""
     id="defs14">
    <linearGradient
       data-v-fde0c5aa=""
       gradientTransform="rotate(25)"
       id="3277e222-ce45-443f-b310-4bd0955daf47"
       x1="0"
       y1="0"
       x2="1"
       y2="0">
      <stop
         data-v-fde0c5aa=""
         offset="0%"
         stop-color="#C2BDCF"
         stop-opacity="1"
         id="stop9" />
      <stop
         data-v-fde0c5aa=""
         offset="100%"
         stop-color="#643CCF"
         stop-opacity="1"
         id="stop11" />
    </linearGradient>
  </defs>
  <g
     id="g3742"
     transform="translate(-40,-141.27514)">
    <g
       style="fill:#000000"
       transform="matrix(2.6519308,0,0,2.6519308,97.940505,121.96909)"
       id="c0fa42b2-41a1-4b0f-9782-2f891db0e7c2"
       data-v-fde0c5aa="" />
    <g
       transform="matrix(0.52268833,0,0,0.52268833,40.039354,124.00307)"
       id="c9e69fb0-1164-4c35-a593-039cf674041f"
       data-v-fde0c5aa=""
       style="fill:url(#linearGradient3751);stroke:none">
      <path
         id="path16"
         d="m 94.455,22.233 -0.012,-0.081 a 3.186,3.186 0 0 0 -0.072,-0.333 c -0.006,-0.022 -0.01,-0.044 -0.018,-0.065 A 2.755,2.755 0 0 0 94.181,21.31 4.081,4.081 0 0 0 94.095,21.134 C 94.076,21.102 94.054,21.072 94.033,21.041 A 3.225,3.225 0 0 0 93.747,20.633 3.386,3.386 0 0 0 93.471,20.348 C 93.45,20.33 93.432,20.314 93.409,20.297 a 2.905,2.905 0 0 0 -0.267,-0.208 l -0.059,-0.041 a 2.768,2.768 0 0 0 -0.344,-0.195 c -0.008,-0.004 -0.014,-0.01 -0.023,-0.014 L 51.348,-0.033 a 3.11,3.11 0 0 0 -2.694,0 L 7.279,19.838 a 3.111,3.111 0 0 0 -1.764,2.804 v 51.116 c 0,1.131 0.613,2.172 1.602,2.721 l 41.375,22.942 a 2.943,2.943 0 0 0 0.69,0.279 c 0.031,0.008 0.062,0.017 0.093,0.023 0.089,0.022 0.18,0.038 0.272,0.053 0.03,0.005 0.061,0.011 0.092,0.015 a 2.884,2.884 0 0 0 0.723,0 c 0.031,-0.004 0.062,-0.01 0.092,-0.015 0.092,-0.015 0.183,-0.029 0.271,-0.053 0.031,-0.008 0.064,-0.017 0.096,-0.023 0.097,-0.026 0.191,-0.059 0.285,-0.094 0.021,-0.006 0.039,-0.014 0.06,-0.021 A 3.632,3.632 0 0 0 51.51,99.421 L 92.885,76.479 a 3.114,3.114 0 0 0 1.603,-2.721 V 22.642 22.635 A 3.89,3.89 0 0 0 94.455,22.233 Z M 88.268,71.924 53.111,91.422 V 80.459 a 3.1105,3.1105 0 0 0 -6.221,0 V 91.422 L 11.735,71.926 V 27.689 a 17.873,17.873 0 0 1 9.548,4.976 l 6.278,6.935 c -1.046,1.328 -2.385,3.19 -2.758,4.592 a 11.947,11.947 0 0 0 1.208,9.086 l 20.724,-12.01 a 11.946,11.946 0 0 0 -7.282,-5.567 c -1.854,-0.493 -4.69,-0.179 -6.47,0.188 l -0.475,0.304 -7.006,-7.749 a 23.92,23.92 0 0 0 -9.58,-5.857 L 50,6.22 84.604,22.84 62.057,35.344 a 3.11,3.11 0 0 0 1.512,5.832 c 0.509,0 1.027,-0.126 1.504,-0.392 l 23.193,-12.86 v 18.553 h -0.188 c 0,10.202 -8.298,18.5 -18.5,18.5 -3.63,0 -7.005,-1.064 -9.861,-2.877 a 9.227,9.227 0 0 0 -2.096,-9.832 l -2.369,2.367 -4.594,-4.592 -0.003,0.003 a 1.5386645,1.5386645 0 1 0 -2.175,2.177 l 4.591,4.592 -3.987,3.986 -4.728,-4.728 -0.003,0.003 a 1.54,1.54 0 0 0 -2.176,2.177 l 4.729,4.729 -2.369,2.367 a 9.226,9.226 0 0 0 6.542,2.709 9.205,9.205 0 0 0 4.594,-1.228 24.525,24.525 0 0 0 13.906,4.312 c 7.467,0 14.162,-3.338 18.689,-8.596 z"
         inkscape:connector-curvature="0"
         style="fill:url(#linearGradient3749)" />
    </g>
  </g>
  <g
     inkscape:groupmode="layer"
     id="layer1"
     inkscape:label="Layer 1"
     transform="translate(-39.901503,-224.22101)" />
  <!---->
</svg>
