<?xml version="1.0" encoding="UTF-8" standalone="no"?>
<svg
   xmlns:dc="http://purl.org/dc/elements/1.1/"
   xmlns:cc="http://creativecommons.org/ns#"
   xmlns:rdf="http://www.w3.org/1999/02/22-rdf-syntax-ns#"
   xmlns:svg="http://www.w3.org/2000/svg"
   xmlns="http://www.w3.org/2000/svg"
   xmlns:xlink="http://www.w3.org/1999/xlink"
   xmlns:sodipodi="http://sodipodi.sourceforge.net/DTD/sodipodi-0.dtd"
   xmlns:inkscape="http://www.inkscape.org/namespaces/inkscape"
   data-v-fde0c5aa=""
   viewBox="0 0 220 17.449704"
   class="iconLeft"
   version="1.1"
   id="svg19"
   sodipodi:docname="default.svg"
   width="220"
   height="52.349113"
   inkscape:version="0.92.3 (2405546, 2018-03-11)">
  <metadata
     id="metadata23">
    <rdf:RDF>
      <cc:Work
         rdf:about="">
        <dc:format>image/svg+xml</dc:format>
        <dc:type
           rdf:resource="http://purl.org/dc/dcmitype/StillImage" />
        <dc:title></dc:title>
      </cc:Work>
    </rdf:RDF>
  </metadata>
  <sodipodi:namedview
     pagecolor="#ffffff"
     bordercolor="#666666"
     borderopacity="1"
     objecttolerance="10"
     gridtolerance="10"
     guidetolerance="10"
     inkscape:pageopacity="0.07843137"
     inkscape:pageshadow="2"
     inkscape:window-width="2416"
     inkscape:window-height="1503"
     id="namedview21"
     showgrid="true"
     inkscape:zoom="4.3833333"
     inkscape:cx="101.23401"
     inkscape:cy="-1.5821037"
     inkscape:window-x="4453"
     inkscape:window-y="439"
     inkscape:window-maximized="0"
     inkscape:current-layer="g3742"
     showguides="true"
     fit-margin-top="0"
     fit-margin-left="0"
     fit-margin-right="0"
     fit-margin-bottom="0"
     inkscape:pagecheckerboard="true">
    <inkscape:grid
       type="xygrid"
       id="grid3734"
       originx="-40"
       originy="-7.9418164" />
  </sodipodi:namedview>
  <!---->
  <defs
     data-v-fde0c5aa=""
     id="defs2">
    <!---->
    <linearGradient
       inkscape:collect="always"
       xlink:href="#3277e222-ce45-443f-b310-4bd0955daf47"
       id="linearGradient3749"
       gradientTransform="scale(0.94253147,1.0609725)"
       x1="5.8512635"
       y1="-0.32031241"
       x2="100.24917"
       y2="-0.32031241"
       gradientUnits="userSpaceOnUse" />
    <linearGradient
       inkscape:collect="always"
       xlink:href="#3277e222-ce45-443f-b310-4bd0955daf47"
       id="linearGradient3751"
       gradientTransform="scale(0.94253147,1.0609725)"
       x1="5.8512635"
       y1="-0.32031241"
       x2="100.24917"
       y2="-0.32031241"
       gradientUnits="userSpaceOnUse" />
  </defs>
  <!---->
  <defs
     data-v-fde0c5aa=""
     id="defs4">
    <!---->
  </defs>
  <defs
     data-v-fde0c5aa=""
     id="defs14">
    <linearGradient
       data-v-fde0c5aa=""
       gradientTransform="rotate(25)"
       id="3277e222-ce45-443f-b310-4bd0955daf47"
       x1="0"
       y1="0"
       x2="1"
       y2="0">
      <stop
         data-v-fde0c5aa=""
         offset="0%"
         stop-color="#C2BDCF"
         stop-opacity="1"
         id="stop9" />
      <stop
         data-v-fde0c5aa=""
         offset="100%"
         stop-color="#643CCF"
         stop-opacity="1"
         id="stop11" />
    </linearGradient>
  </defs>
  <g
     id="g3742"
     transform="translate(-40.098497,-140.87957)">
    <g
       style="fill:#ffffff"
       transform="matrix(2.6519308,0,0,2.6519308,97.940505,121.96909)"
       id="c0fa42b2-41a1-4b0f-9782-2f891db0e7c2"
       data-v-fde0c5aa="">
      <path
         style="fill:#ffffff"
         id="path6"
         d="m 4.05,14.52 c 2.1,0 3.36,-1.15 3.36,-2.94 0,-1.46 -0.83,-2.3 -2.73,-2.73 L 3.88,8.67 C 2.65,8.39 2.04,7.97 2.04,7.04 c 0,-1.05 0.77,-1.59 2.02,-1.59 1.13,0 1.88,0.46 2.41,1.2 L 7.35,6.01 C 6.62,4.97 5.59,4.41 4.12,4.41 2.2,4.41 0.88,5.35 0.88,7.08 c 0,1.5 0.98,2.29 2.76,2.69 l 0.8,0.18 c 1.29,0.3 1.8,0.76 1.8,1.68 0,1.12 -0.75,1.85 -2.15,1.85 -1.14,0 -1.95,-0.49 -2.63,-1.4 l -0.87,0.73 c 0.78,1.06 1.89,1.71 3.46,1.71 z m 7.99,0 c 1.36,0 2.39,-0.67 2.86,-1.65 l -0.8,-0.58 c -0.38,0.8 -1.08,1.25 -1.99,1.25 -1.34,0 -2.14,-0.94 -2.14,-2.19 v -0.33 h 5.19 v -0.53 c 0,-2.05 -1.19,-3.53 -3.12,-3.53 -1.96,0 -3.25,1.48 -3.25,3.78 0,2.29 1.29,3.78 3.25,3.78 z m 0,-6.62 c 1.15,0 1.92,0.85 1.92,2.12 v 0.16 H 9.97 v -0.1 c 0,-1.26 0.85,-2.18 2.07,-2.18 z m 12.43,6.45 -3.41,-9.77 h -1.5 l -3.42,9.77 h 1.19 l 0.98,-2.88 h 3.95 l 0.98,2.88 z m -2.5,-3.92 h -3.38 l 1.65,-4.76 h 0.07 z M 31.58,5.61 V 4.58 h -7.39 v 1.03 h 3.11 v 8.74 h 1.18 V 5.61 Z m 4.81,11.54 h 1.12 v -3.98 h 0.05 c 0.44,0.9 1.12,1.35 2.12,1.35 1.8,0 2.94,-1.47 2.94,-3.78 0,-2.31 -1.14,-3.78 -2.94,-3.78 -1,0 -1.74,0.43 -2.12,1.34 H 37.51 V 7.13 h -1.12 z m 2.98,-3.64 c -1.02,0 -1.86,-0.53 -1.86,-1.47 V 9.35 c 0,-0.8 0.84,-1.38 1.86,-1.38 1.26,0 2.04,0.86 2.04,2.15 v 1.23 c 0,1.29 -0.78,2.16 -2.04,2.16 z m 7.32,0.84 V 13.37 H 45.63 V 3.99 h -1.12 v 9.2 c 0,0.67 0.42,1.16 1.19,1.16 z m 6.08,0 h 1.12 V 7.13 h -1.12 v 4.99 c 0,0.96 -0.87,1.39 -1.75,1.39 -1.08,0 -1.66,-0.66 -1.66,-1.95 V 7.13 h -1.12 v 4.63 c 0,1.75 0.96,2.76 2.44,2.76 1.2,0 1.75,-0.66 2.03,-1.35 h 0.06 z m 5.67,0.17 c 1.65,0 2.67,-0.86 2.67,-2.26 0,-1.09 -0.62,-1.79 -2.21,-2.03 l -0.56,-0.08 c -0.9,-0.14 -1.39,-0.42 -1.39,-1.12 0,-0.69 0.49,-1.12 1.42,-1.12 0.92,0 1.54,0.43 1.86,0.88 L 60.97,8.12 C 60.38,7.39 59.61,6.96 58.45,6.96 c -1.47,0 -2.58,0.7 -2.58,2.13 0,1.34 1,1.89 2.33,2.08 l 0.57,0.09 c 0.95,0.14 1.26,0.57 1.26,1.13 0,0.74 -0.56,1.18 -1.51,1.18 -0.91,0 -1.58,-0.41 -2.14,-1.11 l -0.8,0.64 c 0.64,0.86 1.53,1.42 2.86,1.42 z"
         inkscape:connector-curvature="0" />
    </g>
    <g
       transform="matrix(0.52268833,0,0,0.52268833,37.117374,124.00307)"
       id="c9e69fb0-1164-4c35-a593-039cf674041f"
       data-v-fde0c5aa=""
       style="fill:url(#linearGradient3751);stroke:none">
      <path
         id="path16"
         d="m 94.455,22.233 -0.012,-0.081 a 3.186,3.186 0 0 0 -0.072,-0.333 c -0.006,-0.022 -0.01,-0.044 -0.018,-0.065 A 2.755,2.755 0 0 0 94.181,21.31 4.081,4.081 0 0 0 94.095,21.134 C 94.076,21.102 94.054,21.072 94.033,21.041 A 3.225,3.225 0 0 0 93.747,20.633 3.386,3.386 0 0 0 93.471,20.348 C 93.45,20.33 93.432,20.314 93.409,20.297 a 2.905,2.905 0 0 0 -0.267,-0.208 l -0.059,-0.041 a 2.768,2.768 0 0 0 -0.344,-0.195 c -0.008,-0.004 -0.014,-0.01 -0.023,-0.014 L 51.348,-0.033 a 3.11,3.11 0 0 0 -2.694,0 L 7.279,19.838 a 3.111,3.111 0 0 0 -1.764,2.804 v 51.116 c 0,1.131 0.613,2.172 1.602,2.721 l 41.375,22.942 a 2.943,2.943 0 0 0 0.69,0.279 c 0.031,0.008 0.062,0.017 0.093,0.023 0.089,0.022 0.18,0.038 0.272,0.053 0.03,0.005 0.061,0.011 0.092,0.015 a 2.884,2.884 0 0 0 0.723,0 c 0.031,-0.004 0.062,-0.01 0.092,-0.015 0.092,-0.015 0.183,-0.029 0.271,-0.053 0.031,-0.008 0.064,-0.017 0.096,-0.023 0.097,-0.026 0.191,-0.059 0.285,-0.094 0.021,-0.006 0.039,-0.014 0.06,-0.021 A 3.632,3.632 0 0 0 51.51,99.421 L 92.885,76.479 a 3.114,3.114 0 0 0 1.603,-2.721 V 22.642 22.635 A 3.89,3.89 0 0 0 94.455,22.233 Z M 88.268,71.924 53.111,91.422 V 80.459 a 3.1105,3.1105 0 0 0 -6.221,0 V 91.422 L 11.735,71.926 V 27.689 a 17.873,17.873 0 0 1 9.548,4.976 l 6.278,6.935 c -1.046,1.328 -2.385,3.19 -2.758,4.592 a 11.947,11.947 0 0 0 1.208,9.086 l 20.724,-12.01 a 11.946,11.946 0 0 0 -7.282,-5.567 c -1.854,-0.493 -4.69,-0.179 -6.47,0.188 l -0.475,0.304 -7.006,-7.749 a 23.92,23.92 0 0 0 -9.58,-5.857 L 50,6.22 84.604,22.84 62.057,35.344 a 3.11,3.11 0 0 0 1.512,5.832 c 0.509,0 1.027,-0.126 1.504,-0.392 l 23.193,-12.86 v 18.553 h -0.188 c 0,10.202 -8.298,18.5 -18.5,18.5 -3.63,0 -7.005,-1.064 -9.861,-2.877 a 9.227,9.227 0 0 0 -2.096,-9.832 l -2.369,2.367 -4.594,-4.592 -0.003,0.003 a 1.5386645,1.5386645 0 1 0 -2.175,2.177 l 4.591,4.592 -3.987,3.986 -4.728,-4.728 -0.003,0.003 a 1.54,1.54 0 0 0 -2.176,2.177 l 4.729,4.729 -2.369,2.367 a 9.226,9.226 0 0 0 6.542,2.709 9.205,9.205 0 0 0 4.594,-1.228 24.525,24.525 0 0 0 13.906,4.312 c 7.467,0 14.162,-3.338 18.689,-8.596 z"
         inkscape:connector-curvature="0"
         style="fill:url(#linearGradient3749)" />
    </g>
  </g>
  <g
     inkscape:groupmode="layer"
     id="layer1"
     inkscape:label="Layer 1"
     transform="translate(-40,-223.82544)" />
  <!---->
</svg>
